<?xml version="1.0" encoding="UTF-8"?>
<svg id="Layer_1" data-name="Layer 1" xmlns="http://www.w3.org/2000/svg" xmlns:xlink="http://www.w3.org/1999/xlink" viewBox="0 0 495.62 220.35">
  <defs>
    <style>
      .cls-1 {
        fill: none;
      }

      .cls-2 {
        clip-path: url(#clippath);
      }

      .cls-3, .cls-4 {
        fill: #231f20;
      }

      .cls-4, .cls-5 {
        fill-rule: evenodd;
      }

      .cls-5 {
        fill: #fff;
      }
    </style>
    <clipPath id="clippath">
      <rect class="cls-1" y="0" width="495.6" height="220.35"/>
    </clipPath>
  </defs>
  <g class="cls-2">
    <path class="cls-3" d="M494.54,56.23c-1.7-3.33-5.12-5.44-8.86-5.44h-4.29s-1.76,0-1.76,0h-33.82c-35.39,0-70.07,0-105.07,.04-2.42-3.7-5.07-7.53-8.2-11.18-11.14-12.99-23.83-22.94-37.71-29.58C280.83,3.39,265.46,0,249.16,0c-4.97,0-10.11,.32-15.27,.95-16.9,2.06-32.29,7.54-45.74,16.29-12.76,8.31-23.85,19.61-32.98,33.62-33.26-.07-66.64-.07-95.39-.07h-17.28s-17.28,0-17.28,0h-8.66s-6.63,0-6.63,0c-3.62,0-6.95,1.97-8.7,5.14-1.75,3.17-1.64,7.04,.29,10.1,.24,.37,.41,.67,.55,.9,.39,.65,.87,1.45,1.61,2.33,3.41,4.02,6.86,8.15,10.19,12.15,7.63,9.15,15.51,18.62,23.79,27.62,26.74,29.06,56.3,54.23,87.87,74.82,3.06,1.99,6.99,3.16,10.78,3.21,6.17,.08,12.41,.08,18.45,.08,4.78,0,9.71,0,14.56,.04,.44,.42,.91,.91,1.4,1.42,.88,.92,1.88,1.96,3.04,2.98,21.58,19.09,46.22,28.77,73.24,28.77,7.71,0,15.7-.8,23.77-2.38,21.27-4.16,40.14-14.56,56.12-30.9,5.18,.05,10.32,.08,15.29,.08,5.82,0,11.6-.03,17.2-.1,3.73-.05,7.57-1.19,10.54-3.14,21.85-14.35,43.38-31.44,64-50.8,19.33-18.15,37.72-38.18,54.67-59.54,1.17-1.48,2.23-2.96,3.36-4.54,.54-.75,1.11-1.56,1.75-2.43,2.2-3.02,2.52-7.03,.83-10.36h0Z"/>
  </g>
  <path class="cls-5" d="M9.94,60.73h6.63c46.71,0,93.42-.02,140.14,.08,2.91,0,4.49-.91,6.05-3.36,16.94-26.62,41.13-42.83,72.33-46.63,35.89-4.37,66.21,7.68,89.91,35.32,3.22,3.75,5.99,7.91,8.68,12.07,1.25,1.94,2.61,2.58,4.83,2.58,47.04-.06,94.09-.04,141.13-.05,1.73,0,3.45,0,6.04,0-1.95,2.67-3.33,4.72-4.86,6.65-16.49,20.78-34.34,40.31-53.68,58.47-19.51,18.31-40.28,35.05-62.66,49.74-1.45,.95-3.45,1.49-5.21,1.51-11.04,.13-22.09,.13-33.13,.02-2.4-.02-4.08,.64-5.77,2.4-14.24,14.78-31.38,24.75-51.5,28.69-33.32,6.52-62.98-1.49-88.51-24.08-1.98-1.75-3.64-3.88-5.7-5.5-1.08-.85-2.71-1.37-4.09-1.39-11.37-.11-22.75,.01-34.12-.13-1.84-.02-3.94-.6-5.47-1.6-31.79-20.73-60.33-45.34-85.98-73.22-11.71-12.73-22.51-26.28-33.72-39.47-.34-.4-.57-.89-1.33-2.09h0Z"/>
  <path class="cls-4" d="M247.66,190.39c46.02,.16,83.3-36.63,83.21-82.93-.09-45.45-35.69-82.84-83.02-82.81-46.85,.02-82.59,37.06-82.71,82.78-.12,44.96,35.49,82.65,82.52,82.96h0Zm-86.5-83c-.08-47.85,38.6-86.85,86.73-86.77,50.19,.09,86.07,40.46,87.01,84.91,1.05,49.58-39.71,90.41-89.63,88.93-45.74-1.36-84.32-39.09-84.11-87.07h0Z"/>
  <path class="cls-4" d="M25.79,74.65h127.1c-1.18,4.89-2.24,9.57-3.52,14.2-.18,.65-1.38,1.34-2.17,1.43-1.85,.21-3.74,.08-5.62,.08-32.78,0-65.55-.03-98.33,.06-2.67,0-4.57-.71-6.26-2.76-3.46-4.21-7.1-8.27-11.2-13.01h0Z"/>
  <path class="cls-4" d="M342.89,74.61h126.71c-2.87,3.41-5.49,6.05-7.55,9.06-3.72,5.42-8.48,6.95-15.09,6.87-32-.39-64-.21-96-.12-3.02,0-4.56-.54-5.01-3.95-.51-3.87-1.92-7.63-3.06-11.86h0Z"/>
  <path class="cls-4" d="M148.82,123.72c-1.39,.06-2.48,.15-3.56,.15-23.18,0-46.36,.05-69.54-.08-1.76,0-3.95-.82-5.2-2.03-4.5-4.32-8.68-8.97-13.09-13.61,.79-.07,1.72-.22,2.65-.22,27.71-.01,55.41-.01,83.12,0,4.38,0,4.38,.03,4.74,4.55,.28,3.62,.57,7.24,.88,11.24h0Z"/>
  <path class="cls-4" d="M438.6,108.94c-5.1,4.81-10.18,9.64-15.35,14.37-.54,.5-1.64,.54-2.48,.55-23.93,.03-47.86,.02-71.8,0-.53,0-1.07-.11-1.81-.19,.36-4.71,.58-9.29,1.21-13.82,.11-.77,1.96-1.82,3.03-1.84,7.83-.16,15.66-.09,23.49-.09,19.85,0,39.7,0,59.55,0,1.27,0,2.53,.13,3.8,.19,.12,.27,.24,.54,.35,.81h0Z"/>
  <path class="cls-4" d="M160.69,157.5c-1.71,0-2.88,0-4.05,0-13.57,0-27.15,.05-40.72-.09-1.71-.02-3.68-.7-5.06-1.72-5.84-4.3-11.51-8.84-17.93-13.83,1.69-.21,2.48-.39,3.27-.39,18.1-.02,36.2,.03,54.3-.06,2.37-.01,3.52,.78,4.38,2.96,1.64,4.18,3.63,8.22,5.82,13.12h0Z"/>
  <path class="cls-4" d="M335.53,157.13c2.3-5.13,4.45-10.03,6.75-14.86,.22-.47,1.3-.76,1.98-.76,18.88-.03,37.77,0,56.65,.01,.18,0,.36,.19,.98,.53-3.01,2.55-5.84,5.07-8.79,7.41-3.03,2.4-6.15,4.68-9.31,6.89-.85,.59-1.99,1.09-3,1.09-14.47,.07-28.93,.05-43.4,.03-.51,0-1.02-.19-1.86-.35h0Z"/>
  <path class="cls-5" d="M248.01,30.76c-41.36-.47-76.86,33.68-76.88,76.69-.02,41.46,33.01,76.76,76.72,76.99,42.65,.22,76.9-34.29,77.03-76.99,.13-42.31-34.43-76.78-76.87-76.69h0Zm-.34,159.64c-47.03-.31-82.64-37.99-82.52-82.96,.12-45.72,35.86-82.75,82.71-82.78,47.33-.02,82.93,37.36,83.02,82.81,.09,46.3-37.19,83.09-83.21,82.93h0Z"/>
  <path class="cls-4" d="M304.04,128.98c2.91,0,5.54,.14,8.13-.09,.7-.06,1.85-1.25,1.86-1.93,.11-12.79,.1-25.59,.01-38.39,0-.69-.93-1.91-1.5-1.95-2.8-.2-5.61-.09-8.51-.09v42.45h0Zm-66.11-42.21v42.23c2.45,0,4.66-.15,6.84,.04,2.56,.22,3.14-.87,3.12-3.26-.11-10.26-.04-20.52-.04-30.78q0-9.31-9.92-8.24h0Zm28.17,17.91c.35-.05,.71-.11,1.06-.16,5.42,6.94,11.14,13.66,16.13,20.89,2.99,4.33,6.55,3.8,10.93,3.24,0-1.22,0-2.31,0-3.39,0-10.93,.06-21.85,0-32.78-.04-6.86,1.25-5.8-6.24-6.01-2.11-.06-2.64,.82-2.6,2.75,.1,4.86,.04,9.71,.04,14.57,0,2.48,0,4.96,0,7.44-1.38-.47-2.04-1.13-2.61-1.86-5.01-6.45-10-12.9-14.99-19.36-2.98-3.84-5.23-4.48-10.12-2.9v41.89c2.08,0,3.94-.1,5.79,.03,2.05,.15,2.7-.7,2.65-2.69-.1-4.63-.04-9.27-.04-13.91,0-2.59,0-5.17,0-7.76h0Zm-75.74,.62c.22-.04,.44-.09,.66-.13,.38,.85,.78,1.68,1.12,2.54,2.46,6.14,4.96,12.25,7.31,18.43,.75,1.98,1.64,3.05,4,2.95,2.19-.09,3.66-.4,4.47-2.79,1.13-3.33,2.67-6.53,4.07-9.76,1.64-3.77,3.32-7.51,4.99-11.26,.29,.07,.58,.15,.86,.22v23.51c2.57,0,4.77-.14,6.95,.04,2.48,.21,3.23-.72,3.2-3.19-.11-10.37-.03-20.75-.03-31.13,0-8.33-.02-8.24-8.32-8.27-2.31,0-3.62,.65-4.44,2.87-1.21,3.31-2.7,6.51-4.11,9.75-2.18,4.99-4.39,9.97-6.87,15.61-3.58-9.05-6.83-17.35-10.17-25.61-.37-.92-1.15-2.33-1.81-2.38-3.57-.24-7.16-.11-10.69-.11v42.42c1.41,0,2.6,0,3.79,0q5,.02,5.01-4.96c0-6.25,0-12.5,0-18.75h0ZM248.01,30.76c42.45-.09,77,34.38,76.87,76.69-.13,42.7-34.38,77.2-77.03,76.99-43.71-.22-76.74-35.52-76.72-76.99,.02-43.01,35.52-77.16,76.88-76.69h0Z"/>
  <path class="cls-5" d="M190.36,105.3c0,6.25,0,12.5,0,18.75q0,4.98-5.01,4.96c-1.19,0-2.38,0-3.79,0v-42.42c3.54,0,7.13-.13,10.69,.11,.66,.04,1.44,1.45,1.81,2.38,3.33,8.27,6.59,16.56,10.17,25.61,2.48-5.64,4.69-10.62,6.87-15.61,1.41-3.23,2.9-6.44,4.11-9.75,.82-2.23,2.13-2.88,4.44-2.87,8.3,.03,8.32-.05,8.32,8.27,0,10.38-.08,20.75,.03,31.13,.03,2.47-.72,3.39-3.2,3.19-2.18-.18-4.38-.04-6.95-.04v-23.51c-.29-.07-.58-.15-.86-.22-1.67,3.75-3.35,7.5-4.99,11.26-1.41,3.23-2.94,6.43-4.07,9.76-.81,2.39-2.29,2.69-4.47,2.79-2.36,.1-3.25-.97-4-2.95-2.35-6.18-4.85-12.3-7.31-18.43-.34-.86-.74-1.69-1.12-2.54-.22,.05-.44,.09-.66,.13h0Z"/>
  <path class="cls-5" d="M266.1,104.68c0,2.59,0,5.17,0,7.76,0,4.64-.07,9.27,.04,13.91,.04,1.99-.6,2.83-2.65,2.69-1.84-.13-3.7-.03-5.79-.03v-41.89c4.9-1.58,7.15-.94,10.12,2.9,5,6.45,9.99,12.91,14.99,19.36,.57,.73,1.22,1.4,2.61,1.86,0-2.48,0-4.96,0-7.44,0-4.86,.06-9.71-.04-14.57-.04-1.93,.49-2.81,2.6-2.75,7.49,.21,6.2-.85,6.24,6.01,.06,10.93,.01,21.85,0,32.78,0,1.08,0,2.16,0,3.39-4.38,.56-7.94,1.1-10.93-3.24-4.99-7.23-10.71-13.96-16.13-20.89-.35,.05-.71,.11-1.06,.16h0Z"/>
  <path class="cls-5" d="M237.93,86.77q9.92-1.08,9.92,8.24c0,10.26-.07,20.52,.04,30.78,.03,2.39-.55,3.48-3.12,3.26-2.18-.19-4.39-.04-6.84-.04v-42.23h0Z"/>
  <path class="cls-5" d="M304.04,128.98v-42.45c2.89,0,5.71-.11,8.51,.09,.56,.04,1.49,1.27,1.5,1.95,.09,12.8,.1,25.59-.01,38.39,0,.68-1.16,1.87-1.86,1.93-2.6,.23-5.23,.09-8.13,.09h0Z"/>
</svg>